<?xml version="1.0" encoding="utf-8"?>
<!-- Generator: Adobe Illustrator 17.1.0, SVG Export Plug-In . SVG Version: 6.00 Build 0)  -->
<!DOCTYPE svg PUBLIC "-//W3C//DTD SVG 1.1//EN" "http://www.w3.org/Graphics/SVG/1.1/DTD/svg11.dtd">
<svg version="1.1" id="Layer_1" xmlns="http://www.w3.org/2000/svg" xmlns:xlink="http://www.w3.org/1999/xlink" x="0px" y="0px"
	 viewBox="0 0 127.494 127.494" enable-background="new 0 0 127.494 127.494" xml:space="preserve">
<circle fill="#FF6F49" cx="63.747" cy="63.747" r="63.747"/>
<circle fill="#E1EBCF" cx="63.276" cy="63.512" r="52.909"/>
<path fill="#FF6F49" d="M23.713,47.578c0,0,10.847-12.572,13.032-17.189c0,0,7.982-3.363,12.219-5.318
	c0,0-5.42,22.051,15.448,23.601c0,0,18.037-2.717,12.045-23.91c0,0,7.218,3.791,12.255,4.653c0,0,10.392,13.711,15.097,17.408
	c0,0-9.641,9.453-10.853,12.168c0,0-4.305-2.925-7.307-1.499c-4.71,2.237,2.986,34.785,4.244,42.715c0,0-29.092,7.953-50.822-1.14
	c0,0,9.16-39.345,2.006-41.395c0,0-4.614,1.961-4.976,2.91c0,0-7.156-7.7-12.491-11.522C23.611,49.062,23.22,48.125,23.713,47.578z"
	/>
</svg>
